<svg xmlns="http://www.w3.org/2000/svg" viewBox="0 0 1080 700" width="1080" height="700" font-family="'Segoe UI', 'Helvetica Neue', Arial, sans-serif">
  <defs>
    <marker id="arr" viewBox="0 0 10 10" refX="8" refY="5" markerWidth="6" markerHeight="6" orient="auto-start-reverse">
      <path d="M2 1L8 5L2 9" fill="none" stroke="#94A3B8" stroke-width="1.5" stroke-linecap="round" stroke-linejoin="round"/>
    </marker>
    <marker id="arr-green" viewBox="0 0 10 10" refX="8" refY="5" markerWidth="6" markerHeight="6" orient="auto-start-reverse">
      <path d="M2 1L8 5L2 9" fill="none" stroke="#4ADE80" stroke-width="1.5" stroke-linecap="round" stroke-linejoin="round"/>
    </marker>
    <marker id="arr-amber" viewBox="0 0 10 10" refX="8" refY="5" markerWidth="6" markerHeight="6" orient="auto-start-reverse">
      <path d="M2 1L8 5L2 9" fill="none" stroke="#F59E0B" stroke-width="1.5" stroke-linecap="round" stroke-linejoin="round"/>
    </marker>
    <marker id="arr-purple" viewBox="0 0 10 10" refX="8" refY="5" markerWidth="6" markerHeight="6" orient="auto-start-reverse">
      <path d="M2 1L8 5L2 9" fill="none" stroke="#A78BFA" stroke-width="1.5" stroke-linecap="round" stroke-linejoin="round"/>
    </marker>
    <marker id="arr-teal" viewBox="0 0 10 10" refX="8" refY="5" markerWidth="6" markerHeight="6" orient="auto-start-reverse">
      <path d="M2 1L8 5L2 9" fill="none" stroke="#2DD4BF" stroke-width="1.5" stroke-linecap="round" stroke-linejoin="round"/>
    </marker>
    <filter id="shadow" x="-10%" y="-10%" width="120%" height="130%">
      <feDropShadow dx="0" dy="2" stdDeviation="3" flood-color="#000000" flood-opacity="0.18"/>
    </filter>
    <linearGradient id="bg" x1="0" y1="0" x2="1" y2="1">
      <stop offset="0%" stop-color="#0A0F1E"/>
      <stop offset="100%" stop-color="#0F172A"/>
    </linearGradient>
    <linearGradient id="card" x1="0" y1="0" x2="0" y2="1">
      <stop offset="0%" stop-color="#1E293B"/>
      <stop offset="100%" stop-color="#131C2E"/>
    </linearGradient>
    <linearGradient id="speed-bg" x1="0" y1="0" x2="0" y2="1">
      <stop offset="0%" stop-color="#1A1040" stop-opacity="0.7"/>
      <stop offset="100%" stop-color="#0F172A" stop-opacity="0.4"/>
    </linearGradient>
    <linearGradient id="batch-bg" x1="0" y1="0" x2="0" y2="1">
      <stop offset="0%" stop-color="#0A2010" stop-opacity="0.7"/>
      <stop offset="100%" stop-color="#0F172A" stop-opacity="0.4"/>
    </linearGradient>
  </defs>

  <!-- Background -->
  <rect width="1080" height="700" fill="url(#bg)" rx="12"/>
  <pattern id="grid" width="40" height="40" patternUnits="userSpaceOnUse">
    <path d="M 40 0 L 0 0 0 40" fill="none" stroke="#FFFFFF" stroke-width="0.15" opacity="0.05"/>
  </pattern>
  <rect width="1080" height="700" fill="url(#grid)" rx="12"/>

  <!-- Title bar -->
  <rect x="0" y="0" width="1080" height="52" rx="12" fill="#070D1A"/>
  <rect x="0" y="40" width="1080" height="12" fill="#070D1A"/>

  <!-- Lambda badge -->
  <rect x="36" y="12" width="28" height="28" rx="6" fill="#312E81"/>
  <text x="50" y="31" font-size="16" font-weight="700" fill="#A78BFA" text-anchor="middle">λ</text>
  <text x="72" y="25" font-size="14" font-weight="600" fill="#F1F5F9" letter-spacing="0.3">Big Data Real-time Pipeline</text>
  <text x="72" y="42" font-size="9" fill="#64748B" letter-spacing="0.5">Lambda Architecture Pattern · ESPRIT End of Year Project</text>

  <!-- Layer column headers -->
  <text x="90" y="72" font-size="8.5" fill="#475569" font-weight="700" letter-spacing="1.5" text-anchor="middle">SOURCES</text>
  <text x="240" y="72" font-size="8.5" fill="#475569" font-weight="700" letter-spacing="1.5" text-anchor="middle">INGEST</text>
  <text x="390" y="72" font-size="8.5" fill="#475569" font-weight="700" letter-spacing="1.5" text-anchor="middle">BROKER</text>

  <!-- speed/batch spans -->
  <text x="620" y="72" font-size="8.5" fill="#7C3AED" font-weight="700" letter-spacing="1.5" text-anchor="middle">λ SPEED LAYER</text>
  <text x="620" y="84" font-size="7.5" fill="#4C1D95" text-anchor="middle">Real-time · low latency</text>

  <text x="620" y="400" font-size="8.5" fill="#065F46" font-weight="700" letter-spacing="1.5" text-anchor="middle">λ BATCH LAYER</text>
  <text x="620" y="412" font-size="7.5" fill="#064E3B" text-anchor="middle">High throughput · historical</text>

  <text x="870" y="72" font-size="8.5" fill="#475569" font-weight="700" letter-spacing="1.5" text-anchor="middle">VALIDATE</text>
  <text x="1000" y="72" font-size="8.5" fill="#475569" font-weight="700" letter-spacing="1.5" text-anchor="middle">SERVE &amp; VISUALISE</text>

  <!-- Vertical separators -->
  <line x1="160" y1="58" x2="160" y2="638" stroke="#1E3A5F" stroke-width="0.7" stroke-dasharray="4 4" opacity="0.5"/>
  <line x1="310" y1="58" x2="310" y2="638" stroke="#1E3A5F" stroke-width="0.7" stroke-dasharray="4 4" opacity="0.5"/>
  <line x1="460" y1="58" x2="460" y2="638" stroke="#1E3A5F" stroke-width="0.7" stroke-dasharray="4 4" opacity="0.5"/>
  <line x1="760" y1="58" x2="760" y2="638" stroke="#1E3A5F" stroke-width="0.7" stroke-dasharray="4 4" opacity="0.5"/>
  <line x1="930" y1="58" x2="930" y2="638" stroke="#1E3A5F" stroke-width="0.7" stroke-dasharray="4 4" opacity="0.5"/>

  <!-- Lambda layer containers -->
  <!-- Speed layer box -->
  <rect x="470" y="92" width="280" height="270" rx="10" fill="url(#speed-bg)" stroke="#7C3AED" stroke-width="0.8" stroke-dasharray="5 3"/>
  <!-- Batch layer box -->
  <rect x="470" y="418" width="280" height="170" rx="10" fill="url(#batch-bg)" stroke="#059669" stroke-width="0.8" stroke-dasharray="5 3"/>

  <!-- ═══════════════════════════════ SOURCES ═══════════════════════════════ -->

  <!-- Source: REST API -->
  <rect x="22" y="100" width="116" height="60" rx="8" fill="url(#card)" stroke="#334155" stroke-width="0.7" filter="url(#shadow)"/>
  <rect x="32" y="116" width="26" height="18" rx="3" fill="none" stroke="#64748B" stroke-width="1.2"/>
  <text x="36" y="129" font-size="8" fill="#64748B" font-weight="600">GET</text>
  <text x="80" y="121" font-size="10" font-weight="600" fill="#CBD5E1" text-anchor="middle">REST APIs</text>
  <text x="80" y="135" font-size="8.5" fill="#64748B" text-anchor="middle">HTTP endpoints</text>
  <text x="80" y="149" font-size="8" fill="#475569" text-anchor="middle">JSON · XML feeds</text>

  <!-- Source: Databases -->
  <rect x="22" y="175" width="116" height="60" rx="8" fill="url(#card)" stroke="#334155" stroke-width="0.7" filter="url(#shadow)"/>
  <!-- DB cylinder icon -->
  <ellipse cx="46" cy="198" rx="10" ry="4" fill="none" stroke="#64748B" stroke-width="1.2"/>
  <rect x="36" y="198" width="20" height="16" fill="none" stroke="#64748B" stroke-width="1.2"/>
  <ellipse cx="46" cy="214" rx="10" ry="4" fill="none" stroke="#64748B" stroke-width="1.2"/>
  <text x="80" y="196" font-size="10" font-weight="600" fill="#CBD5E1" text-anchor="middle">Databases</text>
  <text x="80" y="210" font-size="8.5" fill="#64748B" text-anchor="middle">SQL · NoSQL</text>
  <text x="80" y="224" font-size="8" fill="#475569" text-anchor="middle">JDBC · CDC</text>

  <!-- Source: File systems -->
  <rect x="22" y="250" width="116" height="60" rx="8" fill="url(#card)" stroke="#334155" stroke-width="0.7" filter="url(#shadow)"/>
  <!-- file icon -->
  <path d="M36 267 h16 l6 6 v18 h-22 z" fill="none" stroke="#64748B" stroke-width="1.2"/>
  <path d="M52 267 v6 h6" fill="none" stroke="#64748B" stroke-width="1"/>
  <text x="80" y="271" font-size="10" font-weight="600" fill="#CBD5E1" text-anchor="middle">File Systems</text>
  <text x="80" y="285" font-size="8.5" fill="#64748B" text-anchor="middle">CSV · JSON · Logs</text>
  <text x="80" y="299" font-size="8" fill="#475569" text-anchor="middle">Batch uploads</text>

  <!-- Source: Streams -->
  <rect x="22" y="325" width="116" height="60" rx="8" fill="url(#card)" stroke="#334155" stroke-width="0.7" filter="url(#shadow)"/>
  <path d="M34 348 Q44 340 54 348 Q44 356 34 348" fill="none" stroke="#64748B" stroke-width="1.2"/>
  <path d="M42 348 Q52 340 62 348 Q52 356 42 348" fill="none" stroke="#64748B" stroke-width="1"/>
  <text x="80" y="343" font-size="10" font-weight="600" fill="#CBD5E1" text-anchor="middle">Event Streams</text>
  <text x="80" y="357" font-size="8.5" fill="#64748B" text-anchor="middle">IoT · Sensors</text>
  <text x="80" y="371" font-size="8" fill="#475569" text-anchor="middle">Real-time feeds</text>

  <!-- Ubuntu infra badge -->
  <rect x="22" y="540" width="116" height="60" rx="8" fill="#0A1120" stroke="#1E3A5F" stroke-width="0.7" stroke-dasharray="4 3"/>
  <!-- Ubuntu logo: circle of dots #E95420 -->
  <circle cx="48" cy="568" r="14" fill="none" stroke="#E95420" stroke-width="1.8"/>
  <circle cx="48" cy="554" r="4" fill="#E95420"/>
  <circle cx="60" cy="575" r="4" fill="#E95420"/>
  <circle cx="36" cy="575" r="4" fill="#E95420"/>
  <text x="80" y="558" font-size="10" font-weight="600" fill="#94A3B8" text-anchor="middle">Ubuntu</text>
  <text x="80" y="572" font-size="8.5" fill="#475569" text-anchor="middle">Infrastructure</text>
  <text x="80" y="586" font-size="8" fill="#334155" text-anchor="middle">Linux · On-premise</text>

  <!-- ═══════════════════════════════ APACHE NIFI ═══════════════════════════════ -->

  <rect x="172" y="170" width="126" height="140" rx="8" fill="url(#card)" stroke="#2DD4BF" stroke-width="0.9" filter="url(#shadow)"/>
  <!-- NiFi logo: stylised flow arrows #728E9B -->
  <path d="M192 210 L202 202 L202 208 L218 208 L218 202 L228 210 L218 218 L218 212 L202 212 L202 218 Z" fill="#2DD4BF" opacity="0.7"/>
  <text x="235" y="188" font-size="11" font-weight="700" fill="#2DD4BF" text-anchor="middle">Apache NiFi</text>
  <line x1="180" y1="232" x2="290" y2="232" stroke="#1E3A5F" stroke-width="0.5"/>
  <text x="235" y="248" font-size="8.5" fill="#64748B" text-anchor="middle">Data routing</text>
  <text x="235" y="262" font-size="8.5" fill="#64748B" text-anchor="middle">Format transform</text>
  <text x="235" y="276" font-size="8.5" fill="#64748B" text-anchor="middle">Source fan-in</text>
  <text x="235" y="290" font-size="8.5" fill="#64748B" text-anchor="middle">Flow management</text>

  <!-- ═══════════════════════════════ APACHE KAFKA ═══════════════════════════════ -->

  <rect x="322" y="150" width="126" height="180" rx="8" fill="url(#card)" stroke="#4ADE80" stroke-width="0.9" filter="url(#shadow)"/>
  <!-- Kafka logo: K letter shape #231F20 / white -->
  <line x1="350" y1="186" x2="350" y2="222" stroke="#4ADE80" stroke-width="2.5" stroke-linecap="round"/>
  <line x1="350" y1="204" x2="366" y2="186" stroke="#4ADE80" stroke-width="2.5" stroke-linecap="round"/>
  <line x1="350" y1="204" x2="366" y2="222" stroke="#4ADE80" stroke-width="2.5" stroke-linecap="round"/>
  <text x="385" y="172" font-size="11" font-weight="700" fill="#4ADE80" text-anchor="middle">Apache Kafka</text>
  <line x1="330" y1="234" x2="440" y2="234" stroke="#1E3A5F" stroke-width="0.5"/>
  <text x="385" y="250" font-size="8.5" fill="#64748B" text-anchor="middle">Message broker</text>
  <text x="385" y="264" font-size="8.5" fill="#64748B" text-anchor="middle">Topic partitioning</text>
  <text x="385" y="278" font-size="8.5" fill="#64748B" text-anchor="middle">Consumer groups</text>
  <text x="385" y="292" font-size="8.5" fill="#64748B" text-anchor="middle">Offset management</text>
  <text x="385" y="306" font-size="8.5" fill="#64748B" text-anchor="middle">Replay capability</text>

  <!-- ═══════════════════════════════ SPEED LAYER ═══════════════════════════════ -->

  <!-- Spark Streaming -->
  <rect x="482" y="108" width="134" height="120" rx="8" fill="url(#card)" stroke="#E25A1C" stroke-width="0.9" filter="url(#shadow)"/>
  <!-- Spark logo: lightning bolt #E25A1C -->
  <path d="M510 138 L522 118 L526 135 L536 115 L520 138 L528 138 L516 158 L512 140 Z" fill="#E25A1C" opacity="0.9"/>
  <text x="568" y="126" font-size="11" font-weight="700" fill="#E25A1C" text-anchor="middle">Apache Spark</text>
  <text x="568" y="142" font-size="9" fill="#64748B" text-anchor="middle">Structured Streaming</text>
  <line x1="490" y1="154" x2="608" y2="154" stroke="#1E3A5F" stroke-width="0.5"/>
  <text x="568" y="169" font-size="8.5" fill="#64748B" text-anchor="middle">Micro-batch windows</text>
  <text x="568" y="183" font-size="8.5" fill="#64748B" text-anchor="middle">In-memory compute</text>
  <text x="568" y="197" font-size="8.5" fill="#64748B" text-anchor="middle">Low-latency results</text>
  <text x="568" y="211" font-size="8.5" fill="#64748B" text-anchor="middle">RDD · DataFrame API</text>

  <!-- Spark ML / enrichment -->
  <rect x="634" y="108" width="104" height="120" rx="8" fill="url(#card)" stroke="#E25A1C" stroke-width="0.7" stroke-dasharray="4 3" filter="url(#shadow)"/>
  <text x="686" y="130" font-size="10" font-weight="600" fill="#E25A1C" text-anchor="middle">Spark MLlib</text>
  <text x="686" y="146" font-size="8" fill="#64748B" text-anchor="middle">Enrichment</text>
  <line x1="642" y1="158" x2="730" y2="158" stroke="#1E3A5F" stroke-width="0.5"/>
  <text x="686" y="173" font-size="8" fill="#475569" text-anchor="middle">Anomaly detection</text>
  <text x="686" y="187" font-size="8" fill="#475569" text-anchor="middle">Feature extraction</text>
  <text x="686" y="201" font-size="8" fill="#475569" text-anchor="middle">Pattern matching</text>
  <text x="686" y="215" font-size="8" fill="#475569" text-anchor="middle">Classification</text>

  <!-- Speed result store -->
  <rect x="482" y="252" width="256" height="96" rx="8" fill="url(#card)" stroke="#7C3AED" stroke-width="0.7" filter="url(#shadow)"/>
  <text x="610" y="272" font-size="10" font-weight="600" fill="#A78BFA" text-anchor="middle">Speed View (Real-time)</text>
  <line x1="490" y1="282" x2="730" y2="282" stroke="#1E3A5F" stroke-width="0.5"/>
  <text x="610" y="298" font-size="8.5" fill="#64748B" text-anchor="middle">Recent aggregations · Live counters</text>
  <text x="610" y="312" font-size="8.5" fill="#64748B" text-anchor="middle">Streaming materialized views</text>
  <text x="610" y="326" font-size="8.5" fill="#64748B" text-anchor="middle">Low-latency query store</text>
  <text x="610" y="340" font-size="8.5" fill="#475569" text-anchor="middle">Compensates for batch lag</text>

  <!-- ═══════════════════════════════ BATCH LAYER ═══════════════════════════════ -->

  <!-- Hadoop HDFS -->
  <rect x="482" y="434" width="130" height="110" rx="8" fill="url(#card)" stroke="#FBB040" stroke-width="0.9" filter="url(#shadow)"/>
  <!-- Hadoop logo: simplified yellow elephant head #FBB040 -->
  <ellipse cx="512" cy="472" rx="12" ry="10" fill="none" stroke="#FBB040" stroke-width="1.8"/>
  <path d="M500 478 Q494 494 498 500" fill="none" stroke="#FBB040" stroke-width="2" stroke-linecap="round"/>
  <circle cx="516" cy="468" r="2.5" fill="#FBB040"/>
  <text x="548" y="456" font-size="11" font-weight="700" fill="#FBB040" text-anchor="middle">Hadoop</text>
  <line x1="490" y1="490" x2="604" y2="490" stroke="#1E3A5F" stroke-width="0.5"/>
  <text x="548" y="506" font-size="8.5" fill="#64748B" text-anchor="middle">HDFS storage</text>
  <text x="548" y="520" font-size="8.5" fill="#64748B" text-anchor="middle">MapReduce jobs</text>
  <text x="548" y="534" font-size="8.5" fill="#64748B" text-anchor="middle">Batch processing</text>

  <!-- Batch view -->
  <rect x="628" y="434" width="110" height="110" rx="8" fill="url(#card)" stroke="#059669" stroke-width="0.7" filter="url(#shadow)"/>
  <text x="683" y="456" font-size="10" font-weight="600" fill="#34D399" text-anchor="middle">Batch View</text>
  <line x1="636" y1="466" x2="730" y2="466" stroke="#1E3A5F" stroke-width="0.5"/>
  <text x="683" y="481" font-size="8" fill="#64748B" text-anchor="middle">Pre-computed</text>
  <text x="683" y="495" font-size="8" fill="#64748B" text-anchor="middle">Historical aggs</text>
  <text x="683" y="509" font-size="8" fill="#64748B" text-anchor="middle">Full-dataset views</text>
  <text x="683" y="523" font-size="8" fill="#64748B" text-anchor="middle">Recomputed on</text>
  <text x="683" y="537" font-size="8" fill="#475569" text-anchor="middle">schedule</text>

  <!-- ═══════════════════════════════ DROOLS ═══════════════════════════════ -->

  <rect x="772" y="150" width="140" height="220" rx="8" fill="url(#card)" stroke="#DC2626" stroke-width="0.9" filter="url(#shadow)"/>
  <!-- Drools logo: Red Hat inspired - red fedora hat simplified -->
  <path d="M795 190 Q810 175 830 178 Q845 175 850 190" fill="none" stroke="#DC2626" stroke-width="2" stroke-linecap="round"/>
  <ellipse cx="822" cy="190" rx="27" ry="8" fill="none" stroke="#DC2626" stroke-width="1.8"/>
  <ellipse cx="822" cy="190" rx="16" ry="5" fill="#DC2626" opacity="0.2"/>
  <text x="842" y="168" font-size="11" font-weight="700" fill="#DC2626" text-anchor="middle">Apache Drools</text>
  <text x="842" y="182" font-size="8.5" fill="#94A3B8" text-anchor="middle">Business Rules Engine</text>
  <line x1="780" y1="208" x2="904" y2="208" stroke="#1E3A5F" stroke-width="0.5"/>
  <text x="842" y="224" font-size="8.5" fill="#64748B" text-anchor="middle">Schema validation</text>
  <text x="842" y="238" font-size="8.5" fill="#64748B" text-anchor="middle">Data quality rules</text>
  <text x="842" y="252" font-size="8.5" fill="#64748B" text-anchor="middle">Completeness checks</text>
  <text x="842" y="266" font-size="8.5" fill="#64748B" text-anchor="middle">Type enforcement</text>
  <text x="842" y="280" font-size="8.5" fill="#64748B" text-anchor="middle">Business constraints</text>
  <text x="842" y="294" font-size="8.5" fill="#64748B" text-anchor="middle">Rule-based routing</text>
  <text x="842" y="308" font-size="8.5" fill="#64748B" text-anchor="middle">Invalid record DLQ</text>
  <text x="842" y="322" font-size="8.5" fill="#64748B" text-anchor="middle">Audit trail logging</text>
  <text x="842" y="336" font-size="8.5" fill="#64748B" text-anchor="middle">KIE session rules</text>

  <!-- Drools DLQ note -->
  <rect x="780" y="348" width="116" height="18" rx="4" fill="#1A0808" stroke="#7F1D1D" stroke-width="0.6"/>
  <text x="838" y="360" font-size="7.5" fill="#FCA5A5" text-anchor="middle">→ Dead Letter Queue on fail</text>

  <!-- ═══════════════════════════════ SERVING LAYER ═══════════════════════════════ -->

  <!-- Elasticsearch -->
  <rect x="942" y="148" width="124" height="100" rx="8" fill="url(#card)" stroke="#F59E0B" stroke-width="0.9" filter="url(#shadow)"/>
  <circle cx="974" cy="188" r="16" fill="none" stroke="#F59E0B" stroke-width="2.2"/>
  <circle cx="974" cy="188" r="8" fill="#F59E0B" opacity="0.15"/>
  <line x1="986" y1="200" x2="995" y2="210" stroke="#F59E0B" stroke-width="2.5" stroke-linecap="round"/>
  <line x1="970" y1="184" x2="978" y2="184" stroke="#F59E0B" stroke-width="1.2" stroke-linecap="round" opacity="0.8"/>
  <line x1="974" y1="180" x2="974" y2="188" stroke="#F59E0B" stroke-width="1.2" stroke-linecap="round" opacity="0.8"/>
  <text x="1004" y="168" font-size="10.5" font-weight="700" fill="#F59E0B" text-anchor="middle">Elasticsearch</text>
  <text x="1004" y="200" font-size="8.5" fill="#94A3B8" text-anchor="middle">Unified index</text>
  <text x="1004" y="214" font-size="8.5" fill="#64748B" text-anchor="middle">Speed + batch merge</text>
  <text x="1004" y="228" font-size="8.5" fill="#64748B" text-anchor="middle">Full-text · Analytics</text>
  <text x="1004" y="242" font-size="8.5" fill="#64748B" text-anchor="middle">RESTful API</text>

  <!-- Kibana -->
  <rect x="942" y="270" width="124" height="120" rx="8" fill="url(#card)" stroke="#FF6B9D" stroke-width="0.9" filter="url(#shadow)"/>
  <rect x="958" y="320" width="10" height="30" rx="2" fill="#FF6B9D" opacity="0.7"/>
  <rect x="973" y="308" width="10" height="42" rx="2" fill="#FF6B9D" opacity="0.85"/>
  <rect x="988" y="300" width="10" height="50" rx="2" fill="#FF6B9D"/>
  <line x1="950" y1="352" x2="1005" y2="352" stroke="#475569" stroke-width="0.8"/>
  <text x="1004" y="287" font-size="10.5" font-weight="700" fill="#FF6B9D" text-anchor="middle">Kibana</text>
  <text x="1004" y="363" font-size="8.5" fill="#94A3B8" text-anchor="middle">Dashboards</text>
  <text x="1004" y="377" font-size="8.5" fill="#64748B" text-anchor="middle">Real-time viz</text>
  <text x="1004" y="391" font-size="8.5" fill="#64748B" text-anchor="middle">Elastic Stack</text>

  <!-- ═══════════════════════════════ CONNECTORS ═══════════════════════════════ -->

  <!-- Sources → NiFi -->
  <path d="M138 128 L172 220" fill="none" stroke="#94A3B8" stroke-width="0.9" marker-end="url(#arr)" opacity="0.5"/>
  <path d="M138 204 L172 238" fill="none" stroke="#94A3B8" stroke-width="0.9" marker-end="url(#arr)" opacity="0.5"/>
  <path d="M138 278 L172 258" fill="none" stroke="#94A3B8" stroke-width="0.9" marker-end="url(#arr)" opacity="0.5"/>
  <path d="M138 354 L172 270" fill="none" stroke="#94A3B8" stroke-width="0.9" marker-end="url(#arr)" opacity="0.5"/>

  <!-- NiFi → Kafka -->
  <line x1="298" y1="238" x2="322" y2="238" stroke="#2DD4BF" stroke-width="1.4" marker-end="url(#arr-teal)"/>

  <!-- Kafka → Speed layer (Spark Streaming) -->
  <path d="M448 200 L482 168" fill="none" stroke="#4ADE80" stroke-width="1.3" marker-end="url(#arr-green)"/>
  <text x="462" y="188" font-size="7.5" fill="#4ADE80" text-anchor="middle" opacity="0.7">stream</text>

  <!-- Kafka → Batch layer (Hadoop) -->
  <path d="M448 280 L460 280 L460 490 L482 490" fill="none" stroke="#4ADE80" stroke-width="1.3" marker-end="url(#arr-green)"/>
  <text x="458" y="390" font-size="7.5" fill="#4ADE80" text-anchor="start" opacity="0.7">batch</text>

  <!-- Spark → Spark MLlib -->
  <line x1="616" y1="168" x2="634" y2="168" stroke="#E25A1C" stroke-width="1" marker-end="url(#arr)" opacity="0.7"/>

  <!-- Spark + MLlib → Speed View -->
  <path d="M549" y1="228 L549 252" fill="none" stroke="#7C3AED" stroke-width="1" marker-end="url(#arr-purple)" opacity="0.6"/>
  <line x1="549" y1="228" x2="549" y2="252" stroke="#7C3AED" stroke-width="1" marker-end="url(#arr-purple)" opacity="0.7"/>
  <line x1="686" y1="228" x2="686" y2="252" stroke="#7C3AED" stroke-width="1" marker-end="url(#arr-purple)" opacity="0.7"/>

  <!-- Hadoop → Batch View -->
  <line x1="612" y1="490" x2="628" y2="490" stroke="#FBB040" stroke-width="1.2" marker-end="url(#arr-amber)"/>

  <!-- Speed View + Batch View → Drools -->
  <path d="M738 298 L772 250" fill="none" stroke="#DC2626" stroke-width="1.2" marker-end="url(#arr)" opacity="0.8"/>
  <path d="M738 490 L760 490 L760 320 L772 280" fill="none" stroke="#DC2626" stroke-width="1.2" marker-end="url(#arr)" opacity="0.8"/>

  <!-- Drools → Elasticsearch -->
  <line x1="912" y1="230" x2="942" y2="220" stroke="#F59E0B" stroke-width="1.3" marker-end="url(#arr-amber)"/>

  <!-- Elasticsearch → Kibana -->
  <line x1="1004" y1="248" x2="1004" y2="270" stroke="#F59E0B" stroke-width="1.2" marker-end="url(#arr-amber)"/>

  <!-- ═══════════════════════════════ FOOTER ═══════════════════════════════ -->
  <rect x="0" y="648" width="1080" height="52" rx="0" fill="#06090F"/>
  <rect x="0" y="648" width="1080" height="3" fill="#4ADE80" opacity="0.5"/>
  <text x="36" y="666" font-size="8.5" fill="#475569">Stack:</text>
  <text x="66" y="666" font-size="8.5" fill="#64748B">Java 8 · Apache NiFi · Apache Kafka · Apache Spark (Streaming + MLlib) · Hadoop (HDFS + MapReduce) · Apache Drools · Elasticsearch · Kibana · Ubuntu Linux</text>
  <text x="36" y="682" font-size="8.5" fill="#475569">Pattern:</text>
  <text x="72" y="682" font-size="8.5" fill="#64748B">Lambda Architecture — Speed layer (real-time, low latency) + Batch layer (high throughput, historical) merge into unified serving layer</text>
  <text x="36" y="696" font-size="8.5" fill="#475569">Validation:</text>
  <text x="82" y="696" font-size="8.5" fill="#64748B">Apache Drools Business Rules Engine validates and routes data before indexing · Invalid records routed to Dead Letter Queue</text>
</svg>
